<svg height="23" viewBox="0 0 21 23" width="21" xmlns="http://www.w3.org/2000/svg"><path id="arrow-icon-only" d="m899.721216 692.106456-8.111182-8.069883c-.822534-.818252-.822534-2.141484 0-2.951065l.944983-.940161c.839966-.835766 2.205017-.809667 3.01875.043526l2.834949 3.003349v-10.960079c0-1.157796.936267-2.089286 2.1-2.089286h1.4c1.163818 0 2.1.93149 2.1 2.089286v10.960079l2.835034-3.003349c.813733-.861864 2.178784-.879292 3.01875-.043526l.944983.940161c.805017.809581.805017 2.132813-.008716 2.951065l-8.111267 8.069883c-.822534.818338-2.152466.818338-2.966284 0z" fill="currentColor" transform="translate(-891 -670)"/></svg>