
<svg width="56" height="39" class="cloud-icon" viewBox="0 0 56 39" fill="none" xmlns="http://www.w3.org/2000/svg">



<mask id="checkMask">

<path id="cloud"  d="M44.8 39C50.9863 39 56 34.0118 56 27.8571C56 22.4685 52.15 17.9679 47.04 16.9406C47.3988 16.0092 47.6 14.9907 47.6 13.9286C47.6 9.31475 43.8375 5.57141 39.2 5.57141C37.4762 5.57141 35.8663 6.09373 34.5363 6.98169C32.1125 2.80312 27.5888 0 22.4 0C14.665 0 8.40002 6.23302 8.40002 13.9286C8.40002 14.1637 8.40874 14.3987 8.41754 14.6337C3.51754 16.3486 0 20.9973 0 26.4643C0 33.3851 5.64373 39 12.6 39H44.8V39Z" fill="white">
</path>




  

    <path  transform-origin="center" class="check-mark"  d="M23.8485 32.6466L37.6486 18.7672C38.1172 18.2958 38.1172 17.5316 37.6486 17.0603L35.9516 15.3535C35.4829 14.8822 34.7231 14.8822 34.2545 15.3535L23 26.6726L17.7456 21.388C17.277 20.9167 16.5171 20.9167 16.0485 21.388L14.3515 23.0948C13.8828 23.5662 13.8828 24.3304 14.3515 24.8017L22.1515 32.6465C22.6201 33.1179 23.3799 33.1179 23.8485 32.6466V32.6466Z" fill="black">

  </path>
  
</mask>



<path  mask="url(#checkMask)" id="initial-cloud"  d="M44.8 39C50.9863 39 56 34.0118 56 27.8571C56 22.4685 52.15 17.9679 47.04 16.9406C47.3988 16.0092 47.6 14.9907 47.6 13.9286C47.6 9.31475 43.8375 5.57141 39.2 5.57141C37.4762 5.57141 35.8663 6.09373 34.5363 6.98169C32.1125 2.80312 27.5888 0 22.4 0C14.665 0 8.40002 6.23302 8.40002 13.9286C8.40002 14.1637 8.40874 14.3987 8.41754 14.6337C3.51754 16.3486 0 20.9973 0 26.4643C0 33.3851 5.64373 39 12.6 39H44.8V39Z" fill="currentColor">
</path>
</svg>