<svg height="39" viewBox="0 0 56 39" width="56" xmlns="http://www.w3.org/2000/svg"><path d="m920.8 698c6.186267 0 11.2-4.988153 11.2-11.142857 0-5.38865-3.85-9.889252-8.960034-10.916552.358801-.931405.560034-1.949949.560034-3.01202 0-4.613839-3.7625-8.357142-8.4-8.357142-1.723767 0-3.333716.522321-4.663733 1.410284-2.423767-4.178571-6.947534-6.981713-12.136267-6.981713-7.735034 0-14 6.233002-14 13.928571 0 .235062.008716.470124.017517.7051-4.9 1.714973-8.417517 6.363667-8.417517 11.830615 0 6.920759 5.64375 12.535714 12.6 12.535714zm-21.078784-5.893544-8.111182-8.069883c-.822534-.818252-.822534-2.141484 0-2.951065l.944983-.940161c.839966-.835766 2.205017-.809667 3.01875.043526l2.834949 3.003349v-10.960079c0-1.157796.936267-2.089286 2.1-2.089286h1.4c1.163818 0 2.1.93149 2.1 2.089286v10.960079l2.835034-3.003349c.813733-.861864 2.178784-.879292 3.01875-.043526l.944983.940161c.805017.809581.805017 2.132813-.008716 2.951065l-8.111267 8.069883c-.822534.818338-2.152466.818338-2.966284 0z" fill="#fff" transform="translate(-876 -659)"/></svg>