<svg height="39" viewBox="0 0 56 39" width="56" xmlns="http://www.w3.org/2000/svg"><path d="m920.8 698c6.186267 0 11.2-4.988153 11.2-11.142857 0-5.38865-3.85-9.889252-8.960034-10.916552.358801-.931405.560034-1.949949.560034-3.01202 0-4.613839-3.7625-8.357142-8.4-8.357142-1.723767 0-3.333716.522321-4.663733 1.410284-2.423767-4.178571-6.947534-6.981713-12.136267-6.981713-7.735034 0-14 6.233002-14 13.928571 0 .235062.008716.470124.017517.7051-4.9 1.714973-8.417517 6.363667-8.417517 11.830615 0 6.920759 5.64375 12.535714 12.6 12.535714z" fill="#fff" transform="translate(-876 -659)"/></svg>