
<svg width="56" height="39" class="cloud-icon" viewBox="0 0 56 39" fill="none" xmlns="http://www.w3.org/2000/svg">



<mask id="mask">

<path id="cloud"  d="M44.8 39C50.9863 39 56 34.0118 56 27.8571C56 22.4685 52.15 17.9679 47.04 16.9406C47.3988 16.0092 47.6 14.9907 47.6 13.9286C47.6 9.31475 43.8375 5.57141 39.2 5.57141C37.4762 5.57141 35.8663 6.09373 34.5363 6.98169C32.1125 2.80312 27.5888 0 22.4 0C14.665 0 8.40002 6.23302 8.40002 13.9286C8.40002 14.1637 8.40874 14.3987 8.41754 14.6337C3.51754 16.3486 0 20.9973 0 26.4643C0 33.3851 5.64373 39 12.6 39H44.8V39Z" fill="white">
</path>
<path fill="black" id="arrow" class="arrow"  d="M24.7212 38.1064L16.6101 30.0366C15.7875 29.2183 15.7875 27.8951 16.6101 27.0855L17.555 26.1453C18.395 25.3096 19.7601 25.3356 20.5738 26.1888L23.4087 29.1922V18.2321C23.4087 17.0743 24.345 16.1429 25.5087 16.1429H26.9087C28.0725 16.1429 29.0087 17.0743 29.0087 18.2321V29.1922L31.8438 26.1888C32.6575 25.327 34.0225 25.3096 34.8625 26.1453L35.8075 27.0855C36.6125 27.8951 36.6125 29.2183 35.7988 30.0366L27.6875 38.1064C26.865 38.9248 25.535 38.9248 24.7212 38.1064V38.1064Z">
 
</path>

</mask>

<path  mask="url(#mask)" id="initial-cloud"  d="M44.8 39C50.9863 39 56 34.0118 56 27.8571C56 22.4685 52.15 17.9679 47.04 16.9406C47.3988 16.0092 47.6 14.9907 47.6 13.9286C47.6 9.31475 43.8375 5.57141 39.2 5.57141C37.4762 5.57141 35.8663 6.09373 34.5363 6.98169C32.1125 2.80312 27.5888 0 22.4 0C14.665 0 8.40002 6.23302 8.40002 13.9286C8.40002 14.1637 8.40874 14.3987 8.41754 14.6337C3.51754 16.3486 0 20.9973 0 26.4643C0 33.3851 5.64373 39 12.6 39H44.8V39Z" fill="currentColor">
</path>
</svg>