<svg height="11" viewBox="0 0 10 11" width="10" xmlns="http://www.w3.org/2000/svg"><path d="m676.589962 786.62501c.107975 0 .201301-.073966.227546-.178718.360603-1.4389 1.666657-2.47619 3.179505-2.477525.840623-.000744 1.63301.312652 2.243589.884378l-.815427.815409c-.295295.295314-.086155.800207.331477.800207h2.618326c.258883 0 .468749-.209865.468749-.468749v-2.618326c0-.417632-.504894-.626772-.800189-.331477l-.697553.697554c-.869616-.83103-2.048183-1.341493-3.345997-1.341493-2.366919 0-4.337243 1.697727-4.759834 3.94187-.027085.143929.084171.27687.230598.27687zm3.410026 5.468737c2.366919 0 4.337243-1.697727 4.759854-3.941831.027084-.143929-.084152-.27687-.230598-.27687h-1.11923c-.107975 0-.201301.073966-.227546.178718-.360793 1.439549-1.667362 2.476133-3.179428 2.477506-.840643.000763-1.633087-.312633-2.243666-.884378l.815428-.815428c.295295-.295314.086154-.800207-.331478-.800207h-2.618325c-.258884 0-.468749.209865-.468749.468749v2.618326c0 .417632.504893.626772.800188.331477l.697554-.697554c.869615.83103 2.048182 1.341492 3.345996 1.341492z" fill="#79818f" transform="translate(-675 -782)"/></svg>