<svg height="32" viewBox="0 0 32 32" width="32" xmlns="http://www.w3.org/2000/svg"><path d="m328.78966 333.5594 1.768929-1.768564c.587506-.587467.587506-1.537386.006226-2.124791l-6.231719-6.230651c-.281271-.281222-.662525-.437457-1.062578-.437457h-1.018813c1.725102-2.206021 2.750202-4.980773 2.750202-7.999214 0-7.180569-5.819152-12.998723-13.000954-12.998723-7.181801 0-13.000953 5.818154-13.000953 12.998723s5.819152 12.998723 13.000953 12.998723c3.01896 0 5.794188-1.024923 8.000587-2.74973v1.018638c0 .399985.156262.781173.437532 1.062396l6.231719 6.23065c.587507.587467 1.537589.587467 2.118869 0zm-16.788707-10.561463c-4.419086 0-8.000586-3.574661-8.000586-7.999214 0-4.418328 3.575274-7.999214 8.000586-7.999214 4.419087 0 8.000587 3.574661 8.000587 7.999214 0 4.418328-3.575274 7.999214-8.000587 7.999214z" fill="#c3cddb" transform="translate(-299 -302)"/></svg>