<svg height="16" viewBox="0 0 15 16" width="15" xmlns="http://www.w3.org/2000/svg"><path d="m1129.45109 325.281102 5.04889-5.049854 5.04935 5.049396c.29205.292006.76593.292006 1.05844 0l1.17329-1.173292c.29201-.292052.29201-.765928 0-1.058438l-5.04985-5.048893 5.04939-5.04935c.29201-.292052.29201-.765928 0-1.058438l-1.17329-1.173292c-.29205-.292006-.76593-.292006-1.05844 0l-5.04889 5.049854-5.04935-5.049396c-.29205-.292007-.76593-.292007-1.05844 0l-1.17283 1.172834c-.29201.292006-.29201.765928 0 1.058438l5.0494 5.04935-5.0494 5.049351c-.29201.292052-.29201.765928 0 1.058438l1.17329 1.173292c.29205.292006.76593.292006 1.05844 0z" fill="#333539" transform="translate(-1127 -310)"/></svg>